<svg width="120" height="40" viewBox="0 0 120 40" fill="none" xmlns="http://www.w3.org/2000/svg">
  <!-- 배경 원형 -->
  <circle cx="20" cy="20" r="18" fill="url(#gradient1)" stroke="white" stroke-width="2"/>
  
  <!-- 하트 아이콘 -->
  <path d="M20 12C18.5 10.5 16.5 10 15 10C13.5 10 11.5 10.5 10 12C8.5 13.5 8 15.5 8 17C8 18.5 8.5 20.5 10 22C11.5 23.5 13.5 24 15 24C16.5 24 18.5 23.5 20 22C21.5 23.5 23.5 24 25 24C26.5 24 28.5 23.5 30 22C31.5 20.5 32 18.5 32 17C32 15.5 31.5 13.5 30 12C28.5 10.5 26.5 10 25 10C23.5 10 21.5 10.5 20 12Z" fill="white"/>
  
  <!-- 텍스트 -->
  <text x="45" y="25" font-family="Arial, sans-serif" font-size="16" font-weight="bold" fill="white">맘편한</text>
  
  <!-- 그라데이션 정의 -->
  <defs>
    <linearGradient id="gradient1" x1="0%" y1="0%" x2="100%" y2="100%">
      <stop offset="0%" style="stop-color:#FFB3D9;stop-opacity:1" />
      <stop offset="100%" style="stop-color:#B3D9FF;stop-opacity:1" />
    </linearGradient>
  </defs>
</svg> 